<svg xmlns="http://www.w3.org/2000/svg" width="1024" height="1024" viewBox="0 0 1024 1024">
  <g id="BNF-updated" transform="translate(-73 -1530)">
    <path id="Path_478" data-name="Path 478" d="M512,0c282.77,0,512,229.23,512,512s-229.23,512-512,512S0,794.77,0,512,229.23,0,512,0Z" transform="translate(73 1530)" fill="#93da49"/>
    <path id="Path_478_-_Outline" data-name="Path 478 - Outline" d="M512,1a519.222,519.222,0,0,0-52.248,2.638,512.291,512.291,0,0,0-50.737,7.744c-16.463,3.369-32.939,7.605-48.971,12.592C344.191,28.9,328.4,34.685,313.1,41.156c-15.158,6.411-30.187,13.651-44.668,21.518C254.049,70.485,239.874,79.1,226.3,88.27c-13.513,9.129-26.748,19.026-39.339,29.417-12.56,10.365-24.769,21.462-36.288,32.981s-22.616,23.729-32.981,36.288C107.3,199.547,97.4,212.783,88.27,226.3c-9.173,13.578-17.785,27.753-25.6,42.132-7.867,14.481-15.107,29.51-21.518,44.668-6.471,15.3-12.252,31.1-17.183,46.948-4.987,16.032-9.223,32.508-12.592,48.971a512.291,512.291,0,0,0-7.744,50.737,518.681,518.681,0,0,0,0,104.5,512.3,512.3,0,0,0,7.744,50.737c3.369,16.463,7.605,32.939,12.592,48.971C28.9,679.809,34.685,695.6,41.156,710.9c6.411,15.158,13.651,30.187,21.518,44.668,7.811,14.378,16.422,28.554,25.6,42.132,9.129,13.513,19.026,26.748,29.417,39.339,10.365,12.56,21.462,24.769,32.981,36.289s23.729,22.616,36.288,32.981C199.547,916.7,212.783,926.6,226.3,935.73c13.578,9.173,27.753,17.785,42.132,25.6,14.481,7.867,29.51,15.107,44.668,21.518,15.3,6.471,31.1,12.252,46.948,17.183,16.032,4.987,32.508,9.223,48.971,12.592a512.291,512.291,0,0,0,50.737,7.744,518.681,518.681,0,0,0,104.5,0,512.3,512.3,0,0,0,50.737-7.744c16.463-3.369,32.939-7.605,48.971-12.592,15.853-4.931,31.648-10.712,46.948-17.183,15.158-6.411,30.187-13.651,44.668-21.518,14.378-7.811,28.554-16.423,42.132-25.6,13.513-9.129,26.748-19.026,39.339-29.417,12.56-10.365,24.769-21.462,36.289-32.981s22.616-23.729,32.981-36.289C916.7,824.452,926.6,811.217,935.73,797.7c9.173-13.578,17.785-27.753,25.6-42.132,7.867-14.482,15.107-29.51,21.518-44.668,6.471-15.3,12.252-31.1,17.183-46.948,4.987-16.032,9.223-32.508,12.592-48.971a512.3,512.3,0,0,0,7.744-50.737,518.681,518.681,0,0,0,0-104.5,512.291,512.291,0,0,0-7.744-50.737c-3.369-16.463-7.605-32.939-12.592-48.971C995.1,344.191,989.315,328.4,982.844,313.1c-6.411-15.158-13.651-30.187-21.518-44.668-7.811-14.379-16.423-28.554-25.6-42.132-9.129-13.513-19.026-26.748-29.417-39.339-10.365-12.56-21.462-24.769-32.981-36.288s-23.729-22.616-36.289-32.981C824.452,107.3,811.217,97.4,797.7,88.27c-13.578-9.173-27.753-17.785-42.132-25.6-14.482-7.867-29.51-15.107-44.668-21.518-15.3-6.471-31.1-12.252-46.948-17.183-16.032-4.987-32.508-9.223-48.971-12.592a512.3,512.3,0,0,0-50.737-7.744A519.222,519.222,0,0,0,512,1m0-1c282.77,0,512,229.23,512,512s-229.23,512-512,512S0,794.77,0,512,229.23,0,512,0Z" transform="translate(73 1530)" fill="#93da49"/>
    <path id="Path_480" data-name="Path 480" d="M19.059,0V-218.613H130.047q34.594,0,50.449,17.457t15.855,39.879a50.485,50.485,0,0,1-9.209,29.549q-9.209,13.213-27.467,18.178,42.441,10.25,42.441,50.93a68.685,68.685,0,0,1-14.975,43.482Q172.168,0,123.16,0Zm61.82-134.852h31.07q11.691,0,16.5-5.926a19.75,19.75,0,0,0,4.8-12.652q0-18.258-22.422-18.258H80.879Zm0,86.164h32.672q12.172,0,17.857-6.006a19.193,19.193,0,0,0,5.686-13.533,20.622,20.622,0,0,0-5.525-13.854q-5.525-6.326-20.26-6.326H80.879ZM416.727,0H362.113L302.24-96.592a368.85,368.85,0,0,1-23.248-45.147q5.285,21.141,5.285,35.875V0H229.824V-218.613h63.422l50.935,80.073q15.217,23.863,23.057,41.966a318.117,318.117,0,0,1-5.125-57.336v-64.7h54.613Zm174.73-81.84h-71.27V0H454.844V-218.613H612.918v52.051h-92.73v35.555h71.27Z" transform="translate(277 1971.29)" fill="#0e0e0e"/>
    <path id="Path_479" data-name="Path 479" d="M-221.937-10.44a8.14,8.14,0,0,0,3.393,2.262,11.555,11.555,0,0,0,3.741.653,8.427,8.427,0,0,0,5.22-1.784,15.9,15.9,0,0,0,4.046-4.654,24.5,24.5,0,0,0,2.61-6.46,29.082,29.082,0,0,0,.913-7.2q0-4.7-1.544-6.982a4.894,4.894,0,0,0-4.285-2.284,6.49,6.49,0,0,0-3.61,1.218,15.963,15.963,0,0,0-3.523,3.328,28.539,28.539,0,0,0-3.154,4.981,40.7,40.7,0,0,0-2.5,6.177Zm2.393-24.36a28.526,28.526,0,0,1,7.286-7.678,14.792,14.792,0,0,1,8.635-2.849,12.116,12.116,0,0,1,5.046,1.022,10.259,10.259,0,0,1,3.872,3.067,14.586,14.586,0,0,1,2.479,5.177,27.632,27.632,0,0,1,.87,7.351,35.4,35.4,0,0,1-.783,7.438,35.693,35.693,0,0,1-2.219,6.917,32.721,32.721,0,0,1-3.415,6,25.136,25.136,0,0,1-4.415,4.742,20.268,20.268,0,0,1-5.2,3.132,14.958,14.958,0,0,1-5.72,1.131,13.154,13.154,0,0,1-5.459-1.088,13.79,13.79,0,0,1-4.241-2.958l-2.219,17.966h-10.44l7.221-59.247h5.438a3.843,3.843,0,0,1,2.632.827,3.373,3.373,0,0,1,.935,2.653Zm46.893.87a32.2,32.2,0,0,1,3.632-5.677A17.187,17.187,0,0,1-165-43.3a9.97,9.97,0,0,1,4.306-1.566,8.7,8.7,0,0,1,4.437.718l-1.958,10.266q-5.307-2.219-9.287,1.088t-6.373,13.006L-176.262,0h-10.527l5.394-44.675h5.481a3.843,3.843,0,0,1,2.632.827,3.373,3.373,0,0,1,.935,2.653Zm38.845-3.828a9.279,9.279,0,0,0-4.046.892,11.156,11.156,0,0,0-3.371,2.5,16.021,16.021,0,0,0-2.61,3.85,23.8,23.8,0,0,0-1.762,4.894,71.381,71.381,0,0,0,8.678-1.631,22.223,22.223,0,0,0,5.068-1.914,5.627,5.627,0,0,0,2.371-2.219,5.607,5.607,0,0,0,.587-2.5,3.573,3.573,0,0,0-.283-1.349,3.447,3.447,0,0,0-.87-1.24,4.827,4.827,0,0,0-1.523-.914A6.091,6.091,0,0,0-133.806-37.758Zm-12.7,19.575q0,10.527,8.917,10.527a14.051,14.051,0,0,0,3.393-.37,14.163,14.163,0,0,0,2.588-.892,12.109,12.109,0,0,0,2-1.174q.892-.653,1.653-1.175a12.726,12.726,0,0,1,1.5-.892,3.548,3.548,0,0,1,1.609-.37,2.186,2.186,0,0,1,1.022.261,3.16,3.16,0,0,1,.892.7l2.741,3.306a45.757,45.757,0,0,1-4.524,4,25.062,25.062,0,0,1-4.524,2.784,21.348,21.348,0,0,1-4.872,1.61,27.945,27.945,0,0,1-5.568.522,18.226,18.226,0,0,1-7.09-1.327,15.582,15.582,0,0,1-5.437-3.741,16.779,16.779,0,0,1-3.5-5.829,22.248,22.248,0,0,1-1.24-7.634,31.5,31.5,0,0,1,.761-6.917,30.921,30.921,0,0,1,2.2-6.438,27.3,27.3,0,0,1,3.523-5.611,23.964,23.964,0,0,1,4.72-4.437,21.687,21.687,0,0,1,5.786-2.915A21.393,21.393,0,0,1-133.2-45.24a17.147,17.147,0,0,1,6.112,1,13.813,13.813,0,0,1,4.394,2.588,10.519,10.519,0,0,1,2.632,3.545,9.386,9.386,0,0,1,.87,3.828,12.447,12.447,0,0,1-1.2,5.481,11.222,11.222,0,0,1-4.263,4.437,30.224,30.224,0,0,1-8.374,3.371,88.241,88.241,0,0,1-13.485,2.24Zm61.553-18.053a3.56,3.56,0,0,1-.914.979A2.043,2.043,0,0,1-87-34.974a3.2,3.2,0,0,1-1.566-.435q-.783-.435-1.805-.979a14.881,14.881,0,0,0-2.349-.979,10.166,10.166,0,0,0-3.154-.435,7.943,7.943,0,0,0-5.263,1.544,4.839,4.839,0,0,0-1.827,3.85,3.578,3.578,0,0,0,1.283,2.871,12.506,12.506,0,0,0,3.241,1.914q1.958.827,4.2,1.675a21.546,21.546,0,0,1,4.2,2.132A10.849,10.849,0,0,1-86.8-20.51a9.556,9.556,0,0,1,1.283,5.2A15.056,15.056,0,0,1-86.8-9.179,15.183,15.183,0,0,1-90.48-4.067a17.747,17.747,0,0,1-5.764,3.48A21.208,21.208,0,0,1-103.834.7a20.164,20.164,0,0,1-4.089-.413A19.216,19.216,0,0,1-111.643-.87,17.807,17.807,0,0,1-114.8-2.61a12.75,12.75,0,0,1-2.436-2.175l2.653-4.089a3.507,3.507,0,0,1,1.131-1.131,3.078,3.078,0,0,1,1.609-.392,2.654,2.654,0,0,1,1.653.566q.74.565,1.718,1.24a12.226,12.226,0,0,0,2.392,1.24,9.894,9.894,0,0,0,3.632.566,9.549,9.549,0,0,0,3.154-.479A7.094,7.094,0,0,0-96.961-8.57a5.372,5.372,0,0,0,1.436-1.914,5.662,5.662,0,0,0,.479-2.305,3.961,3.961,0,0,0-.74-2.458,6.543,6.543,0,0,0-1.979-1.7,16.193,16.193,0,0,0-2.806-1.261q-1.566-.544-3.2-1.153a30.961,30.961,0,0,1-3.175-1.392,11.431,11.431,0,0,1-2.784-1.979,8.861,8.861,0,0,1-1.979-2.914,10.611,10.611,0,0,1-.74-4.2,15.285,15.285,0,0,1,1.131-5.764,14.586,14.586,0,0,1,3.306-4.959,16.258,16.258,0,0,1,5.372-3.458,19.271,19.271,0,0,1,7.33-1.305,18.6,18.6,0,0,1,7.569,1.457,17.534,17.534,0,0,1,5.524,3.719Zm28.8-1.522a9.279,9.279,0,0,0-4.046.892,11.155,11.155,0,0,0-3.371,2.5,16.022,16.022,0,0,0-2.61,3.85,23.8,23.8,0,0,0-1.762,4.894,71.38,71.38,0,0,0,8.678-1.631A22.224,22.224,0,0,0-54.2-29.167a5.627,5.627,0,0,0,2.371-2.219,5.607,5.607,0,0,0,.587-2.5,3.573,3.573,0,0,0-.283-1.349,3.447,3.447,0,0,0-.87-1.24,4.827,4.827,0,0,0-1.523-.914A6.091,6.091,0,0,0-56.158-37.758Zm-12.7,19.575q0,10.527,8.917,10.527a14.051,14.051,0,0,0,3.393-.37,14.163,14.163,0,0,0,2.588-.892,12.109,12.109,0,0,0,2-1.174q.892-.653,1.653-1.175a12.727,12.727,0,0,1,1.5-.892,3.548,3.548,0,0,1,1.609-.37,2.186,2.186,0,0,1,1.022.261,3.16,3.16,0,0,1,.892.7l2.741,3.306a45.756,45.756,0,0,1-4.524,4,25.061,25.061,0,0,1-4.524,2.784A21.348,21.348,0,0,1-56.463.131a27.945,27.945,0,0,1-5.568.522,18.226,18.226,0,0,1-7.09-1.327,15.582,15.582,0,0,1-5.437-3.741,16.779,16.779,0,0,1-3.5-5.829,22.247,22.247,0,0,1-1.24-7.634,31.5,31.5,0,0,1,.761-6.917,30.92,30.92,0,0,1,2.2-6.438,27.3,27.3,0,0,1,3.523-5.611,23.965,23.965,0,0,1,4.72-4.437A21.687,21.687,0,0,1-62.314-44.2a21.393,21.393,0,0,1,6.764-1.044,17.146,17.146,0,0,1,6.112,1,13.812,13.812,0,0,1,4.394,2.588,10.519,10.519,0,0,1,2.632,3.545,9.386,9.386,0,0,1,.87,3.828,12.447,12.447,0,0,1-1.2,5.481A11.222,11.222,0,0,1-47-24.36a30.224,30.224,0,0,1-8.374,3.371,88.241,88.241,0,0,1-13.485,2.24Zm45.936-17.226a24.325,24.325,0,0,1,7.526-7.46,16.47,16.47,0,0,1,8.526-2.458,10.856,10.856,0,0,1,5,1.131,9.561,9.561,0,0,1,3.654,3.284A14.138,14.138,0,0,1,3.806-35.6a23.25,23.25,0,0,1,.065,7.2L.522,0H-10.222l3.35-28.406q.565-4.35-.435-6.242a3.759,3.759,0,0,0-3.654-1.892,7.594,7.594,0,0,0-3.654,1.022A14.247,14.247,0,0,0-18.226-32.6a23.376,23.376,0,0,0-3.2,4.524,27.346,27.346,0,0,0-2.371,5.894L-26.274,0H-37.018l5.351-44.675h5.437a3.843,3.843,0,0,1,2.632.827,3.373,3.373,0,0,1,.935,2.653Zm36.1,26.318v-.718q0-.413.065-1.218t.218-2.132q.152-1.327.413-3.415l2.479-20.01h-4.22a1.636,1.636,0,0,1-1.283-.566,2.01,2.01,0,0,1-.326-1.7l.479-4.263,6.786-1.174,3.567-12.18a2.865,2.865,0,0,1,.913-1.348,2.389,2.389,0,0,1,1.522-.478h5.742L27.8-44.24H38.585l-.913,7.656H26.84L24.447-17.139q-.218,1.784-.348,2.828t-.2,1.631q-.065.587-.065.826v.326a3.929,3.929,0,0,0,.8,2.61,2.818,2.818,0,0,0,2.284.957A4.56,4.56,0,0,0,28.493-8.2a8.451,8.451,0,0,0,1.131-.5q.479-.261.87-.5a1.429,1.429,0,0,1,.74-.239,1.055,1.055,0,0,1,.74.239,2.2,2.2,0,0,1,.479.718l2.306,5.22A17.127,17.127,0,0,1,29.471-.3a17.915,17.915,0,0,1-5.894,1,10.589,10.589,0,0,1-7.5-2.567A9.767,9.767,0,0,1,13.181-9.092ZM63.6-37.758a9.279,9.279,0,0,0-4.046.892,11.155,11.155,0,0,0-3.371,2.5,16.022,16.022,0,0,0-2.61,3.85,23.8,23.8,0,0,0-1.762,4.894,71.38,71.38,0,0,0,8.678-1.631,22.224,22.224,0,0,0,5.068-1.914,5.627,5.627,0,0,0,2.371-2.219,5.607,5.607,0,0,0,.587-2.5,3.573,3.573,0,0,0-.283-1.349,3.447,3.447,0,0,0-.87-1.24,4.827,4.827,0,0,0-1.523-.914A6.091,6.091,0,0,0,63.6-37.758ZM50.9-18.183q0,10.527,8.917,10.527a14.051,14.051,0,0,0,3.393-.37,14.163,14.163,0,0,0,2.588-.892,12.11,12.11,0,0,0,2-1.174q.892-.653,1.653-1.175a12.726,12.726,0,0,1,1.5-.892,3.548,3.548,0,0,1,1.609-.37,2.186,2.186,0,0,1,1.022.261,3.16,3.16,0,0,1,.892.7l2.741,3.306a45.757,45.757,0,0,1-4.524,4,25.062,25.062,0,0,1-4.524,2.784A21.348,21.348,0,0,1,63.293.131a27.945,27.945,0,0,1-5.568.522,18.226,18.226,0,0,1-7.09-1.327A15.582,15.582,0,0,1,45.2-4.415a16.779,16.779,0,0,1-3.5-5.829,22.247,22.247,0,0,1-1.24-7.634,31.5,31.5,0,0,1,.761-6.917,30.92,30.92,0,0,1,2.2-6.438,27.3,27.3,0,0,1,3.524-5.611,23.964,23.964,0,0,1,4.72-4.437A21.687,21.687,0,0,1,57.442-44.2a21.393,21.393,0,0,1,6.764-1.044,17.146,17.146,0,0,1,6.112,1,13.813,13.813,0,0,1,4.394,2.588,10.519,10.519,0,0,1,2.632,3.545,9.386,9.386,0,0,1,.87,3.828,12.447,12.447,0,0,1-1.2,5.481,11.222,11.222,0,0,1-4.263,4.437,30.224,30.224,0,0,1-8.374,3.371A88.241,88.241,0,0,1,50.9-18.749Zm62.422-16.052a8.14,8.14,0,0,0-3.393-2.262,11.676,11.676,0,0,0-3.785-.653,8.427,8.427,0,0,0-5.22,1.784A15.636,15.636,0,0,0,96.9-30.711a24.973,24.973,0,0,0-2.588,6.46,29.081,29.081,0,0,0-.913,7.2q0,4.7,1.544,6.982a4.894,4.894,0,0,0,4.285,2.284,6.511,6.511,0,0,0,3.567-1.2,15.5,15.5,0,0,0,3.523-3.306,28.538,28.538,0,0,0,3.154-4.981,40.7,40.7,0,0,0,2.5-6.177Zm14.312-30.407L119.625,0h-5.7a3.172,3.172,0,0,1-2.762-1.022,4.32,4.32,0,0,1-.718-2.545l.392-6.221A33.655,33.655,0,0,1,107.4-5.459a22.811,22.811,0,0,1-3.828,3.284A17.719,17.719,0,0,1,99.419-.087,13.5,13.5,0,0,1,95,.653,12.116,12.116,0,0,1,89.958-.37a10.259,10.259,0,0,1-3.871-3.067,14.585,14.585,0,0,1-2.479-5.177,27.822,27.822,0,0,1-.87-7.4,35.1,35.1,0,0,1,.783-7.417,35.8,35.8,0,0,1,2.219-6.895,32.721,32.721,0,0,1,3.415-6,25.136,25.136,0,0,1,4.415-4.742,20.269,20.269,0,0,1,5.2-3.132,14.959,14.959,0,0,1,5.72-1.131,13.194,13.194,0,0,1,5.438,1.088,13.37,13.37,0,0,1,4.263,3l2.914-23.4Zm32.755,54.2a8.14,8.14,0,0,0,3.393,2.262,11.676,11.676,0,0,0,3.785.653,8.427,8.427,0,0,0,5.22-1.784,15.636,15.636,0,0,0,4.024-4.654,24.973,24.973,0,0,0,2.588-6.46,29.082,29.082,0,0,0,.913-7.2q0-4.7-1.522-6.982a4.842,4.842,0,0,0-4.263-2.284,6.569,6.569,0,0,0-3.61,1.2,15.5,15.5,0,0,0-3.523,3.306,28.539,28.539,0,0,0-3.154,4.981,40.7,40.7,0,0,0-2.5,6.177Zm3.132-25.36a27.17,27.17,0,0,1,6.982-6.96,14.524,14.524,0,0,1,8.2-2.567,12.116,12.116,0,0,1,5.046,1.022,10.259,10.259,0,0,1,3.872,3.067,14.586,14.586,0,0,1,2.48,5.177,27.632,27.632,0,0,1,.87,7.351,35.4,35.4,0,0,1-.783,7.438,36.674,36.674,0,0,1-2.2,6.917,31.122,31.122,0,0,1-3.415,6,26.118,26.118,0,0,1-4.415,4.742,19.91,19.91,0,0,1-5.176,3.132,14.958,14.958,0,0,1-5.72,1.131,13.254,13.254,0,0,1-6.09-1.37,13.269,13.269,0,0,1-4.524-3.719L158.3-2.958a5.033,5.033,0,0,1-1.262,2.24A3.668,3.668,0,0,1,154.512,0h-5.829l7.83-64.641H167.04Zm74.037-8.831L208.061,12.354a4.493,4.493,0,0,1-1.436,1.675,3.642,3.642,0,0,1-2.044.544H196.62l9.918-18.009L195.271-44.631h9a2.393,2.393,0,0,1,1.762.587,3.064,3.064,0,0,1,.8,1.414l5.481,23.142q.435,2.219.652,4.437.479-1.131.979-2.24t1.022-2.24l11.005-23.142a3.588,3.588,0,0,1,1.262-1.414,3.051,3.051,0,0,1,1.7-.544ZM-48.789,50.322V129h-9.5a8.265,8.265,0,0,1-3.537-.675,8.657,8.657,0,0,1-2.835-2.349l-37.1-46.926q.216,2.106.3,4.077t.081,3.7V129h-16.092V50.322h9.612a15.491,15.491,0,0,1,2,.108,5.1,5.1,0,0,1,1.458.4,4.866,4.866,0,0,1,1.242.837,14.193,14.193,0,0,1,1.35,1.458L-64.4,100.38q-.27-2.268-.378-4.4t-.108-4.023V50.322ZM-15.2,129h-18.36V50.322H-15.2Zm68.256-20.358a3.669,3.669,0,0,1,1.3.243,3.523,3.523,0,0,1,1.242.837l7.236,7.614a30.039,30.039,0,0,1-11.907,9.369,41.666,41.666,0,0,1-16.929,3.159,40.329,40.329,0,0,1-16.065-3.051,34.767,34.767,0,0,1-12.042-8.424A37.1,37.1,0,0,1-1.7,105.645,47.058,47.058,0,0,1-4.347,89.634,44.319,44.319,0,0,1-1.485,73.461,37.558,37.558,0,0,1,6.561,60.744a36.233,36.233,0,0,1,12.42-8.316,41.566,41.566,0,0,1,15.93-2.97,42.5,42.5,0,0,1,8.343.783,40.778,40.778,0,0,1,7.317,2.16,33.426,33.426,0,0,1,6.264,3.321,32.871,32.871,0,0,1,5.076,4.212L55.755,68.2a7.839,7.839,0,0,1-1.4,1.377,3.654,3.654,0,0,1-2.268.621,4.05,4.05,0,0,1-1.836-.432,20.3,20.3,0,0,1-1.836-1.053q-.972-.621-2.133-1.35a16.366,16.366,0,0,0-2.754-1.35A22.762,22.762,0,0,0,39.8,64.956a25.426,25.426,0,0,0-4.995-.432A20.121,20.121,0,0,0,26.514,66.2a18.067,18.067,0,0,0-6.48,4.887,22.6,22.6,0,0,0-4.212,7.884,35.182,35.182,0,0,0-1.485,10.665,32.4,32.4,0,0,0,1.647,10.746,23.6,23.6,0,0,0,4.482,7.911,19.019,19.019,0,0,0,6.615,4.887,19.778,19.778,0,0,0,8.1,1.674,38.773,38.773,0,0,0,4.536-.243,20.628,20.628,0,0,0,3.834-.81,15.623,15.623,0,0,0,3.348-1.512,21.124,21.124,0,0,0,3.186-2.4,6.385,6.385,0,0,1,1.4-.891A3.679,3.679,0,0,1,53.055,108.642Zm36.126-44.28v18.36h24.732v13.5H89.181V114.96h32.292V129H70.821V50.322h50.652v14.04Z" transform="translate(581.409 2261.29)" fill="#0e0e0e"/>
    <path id="Line_262" data-name="Line 262" d="M5.5,699.094h-11V0h11Z" transform="translate(928.134 2094.29) rotate(90)" fill="#0e0e0e"/>
  </g>
</svg>
