<svg xmlns="http://www.w3.org/2000/svg" width="1024" height="1024" viewBox="0 0 1024 1024">
  <g id="BNFc_-_c" data-name="BNFc - c" transform="translate(-730 -1530)">
    <rect id="Rectangle_1104" data-name="Rectangle 1104" width="1024" height="1024" rx="512" transform="translate(730 1530)" fill="#ef4a81"/>
    <path id="Path_481" data-name="Path 481" d="M15.107,0V-173.291h87.979q27.422,0,39.99,13.838t12.568,31.611a40.019,40.019,0,0,1-7.3,23.423q-7.3,10.474-21.772,14.409,33.643,8.125,33.643,40.371a54.446,54.446,0,0,1-11.87,34.468Q136.475,0,97.627,0Zm49-106.895H88.74q9.268,0,13.076-4.7a15.656,15.656,0,0,0,3.809-10.029q0-14.473-17.773-14.473H64.111Zm0,68.3h25.9q9.648,0,14.155-4.761a15.214,15.214,0,0,0,4.507-10.728,16.346,16.346,0,0,0-4.38-10.981q-4.38-5.015-16.06-5.015H64.111ZM330.332,0H287.041L239.58-76.567a292.381,292.381,0,0,1-18.428-35.787q4.189,16.758,4.189,28.438V0H182.178V-173.291h50.273l40.375,63.473Q284.889-90.9,291.1-76.553A252.164,252.164,0,0,1,287.041-122v-51.289h43.291ZM468.838-64.873H412.344V0h-51.8V-173.291h125.3v41.26H412.344v28.184h56.494ZM578.779-52.051l43.164,3.682q-3.047,22.6-18.979,36.816T560.625,2.666q-29.58,0-48.052-18.6T494.1-63.6q0-29.707,18.345-48.94t47.671-19.233q26.025,0,42.4,14.536t18.789,36.753L577-76.807q-2.793-20.439-15.488-20.439-8.125,0-11.87,7.427T545.9-63.984q0,15.869,3.745,23.486t13.013,7.617Q576.24-32.881,578.779-52.051Z" transform="translate(947 1982)" fill="#0e0e0e"/>
    <path id="Line_263" data-name="Line 263" d="M5.5,693.8h-11V0h11Z" transform="translate(1588.902 2094.289) rotate(90)" fill="#0e0e0e"/>
    <path id="Path_482" data-name="Path 482" d="M-219.386-10.32a8.046,8.046,0,0,0,3.354,2.236,11.422,11.422,0,0,0,3.7.645,8.33,8.33,0,0,0,5.16-1.763,15.721,15.721,0,0,0,4-4.6,24.221,24.221,0,0,0,2.58-6.386,28.747,28.747,0,0,0,.9-7.117q0-4.644-1.527-6.9a4.838,4.838,0,0,0-4.236-2.257,6.416,6.416,0,0,0-3.569,1.2,15.78,15.78,0,0,0-3.483,3.289,28.211,28.211,0,0,0-3.118,4.924,40.233,40.233,0,0,0-2.473,6.106Zm2.365-24.08a28.2,28.2,0,0,1,7.2-7.59,14.622,14.622,0,0,1,8.535-2.817,11.977,11.977,0,0,1,4.988,1.01,10.141,10.141,0,0,1,3.827,3.032,14.418,14.418,0,0,1,2.451,5.117,27.315,27.315,0,0,1,.86,7.267,34.994,34.994,0,0,1-.774,7.353,35.283,35.283,0,0,1-2.193,6.837A32.345,32.345,0,0,1-195.5-8.256a24.847,24.847,0,0,1-4.365,4.687A20.035,20.035,0,0,1-205-.473,14.787,14.787,0,0,1-210.657.645a13,13,0,0,1-5.4-1.075,13.631,13.631,0,0,1-4.193-2.924l-2.193,17.759h-10.32l7.138-58.566h5.375a3.8,3.8,0,0,1,2.6.817,3.334,3.334,0,0,1,.924,2.623Zm46.354.86a31.826,31.826,0,0,1,3.59-5.611,16.99,16.99,0,0,1,3.978-3.655,9.855,9.855,0,0,1,4.257-1.548,8.6,8.6,0,0,1,4.386.709L-156.391-33.5q-5.246-2.193-9.181,1.075t-6.3,12.857L-174.236,0h-10.406l5.332-44.161h5.418a3.8,3.8,0,0,1,2.6.817,3.334,3.334,0,0,1,.924,2.623Zm38.4-3.784a9.173,9.173,0,0,0-4,.882A11.027,11.027,0,0,0-139.6-33.97a15.838,15.838,0,0,0-2.58,3.805,23.527,23.527,0,0,0-1.742,4.838,70.559,70.559,0,0,0,8.578-1.612,21.968,21.968,0,0,0,5.01-1.892,5.562,5.562,0,0,0,2.343-2.193,5.543,5.543,0,0,0,.58-2.472,3.532,3.532,0,0,0-.279-1.333,3.408,3.408,0,0,0-.86-1.225,4.771,4.771,0,0,0-1.505-.9A6.021,6.021,0,0,0-132.268-37.324Zm-12.556,19.35q0,10.406,8.815,10.406a13.89,13.89,0,0,0,3.354-.365,14,14,0,0,0,2.559-.882,11.97,11.97,0,0,0,1.978-1.161q.882-.645,1.634-1.161A12.581,12.581,0,0,1-125-12.019a3.507,3.507,0,0,1,1.591-.366,2.161,2.161,0,0,1,1.011.258,3.124,3.124,0,0,1,.882.688l2.709,3.268a45.232,45.232,0,0,1-4.472,3.956,24.773,24.773,0,0,1-4.472,2.752A21.1,21.1,0,0,1-132.569.129a27.624,27.624,0,0,1-5.5.516,18.017,18.017,0,0,1-7.009-1.312,15.4,15.4,0,0,1-5.375-3.7,16.586,16.586,0,0,1-3.462-5.762,21.992,21.992,0,0,1-1.225-7.547,31.135,31.135,0,0,1,.753-6.837,30.565,30.565,0,0,1,2.171-6.364,26.987,26.987,0,0,1,3.483-5.547,23.689,23.689,0,0,1,4.665-4.386,21.437,21.437,0,0,1,5.719-2.881,21.147,21.147,0,0,1,6.686-1.032,16.949,16.949,0,0,1,6.042.989,13.654,13.654,0,0,1,4.343,2.559,10.4,10.4,0,0,1,2.6,3.5,9.278,9.278,0,0,1,.86,3.784A12.3,12.3,0,0,1-119-28.466a11.093,11.093,0,0,1-4.214,4.386,29.877,29.877,0,0,1-8.277,3.332,87.226,87.226,0,0,1-13.33,2.215Zm60.845-17.845a3.519,3.519,0,0,1-.9.968A2.019,2.019,0,0,1-86-34.572,3.163,3.163,0,0,1-87.548-35q-.774-.43-1.785-.968a14.71,14.71,0,0,0-2.322-.967,10.049,10.049,0,0,0-3.117-.43,7.851,7.851,0,0,0-5.2,1.527,4.784,4.784,0,0,0-1.806,3.805,3.537,3.537,0,0,0,1.269,2.838,12.362,12.362,0,0,0,3.2,1.892q1.935.817,4.149,1.656a21.3,21.3,0,0,1,4.149,2.107,10.725,10.725,0,0,1,3.2,3.268,9.446,9.446,0,0,1,1.268,5.138,14.883,14.883,0,0,1-1.268,6.063A15.008,15.008,0,0,1-89.44-4.021a17.543,17.543,0,0,1-5.7,3.44,20.964,20.964,0,0,1-7.5,1.269A19.933,19.933,0,0,1-106.683.28,19,19,0,0,1-110.36-.86a17.6,17.6,0,0,1-3.118-1.72,12.6,12.6,0,0,1-2.408-2.15l2.623-4.042a3.466,3.466,0,0,1,1.118-1.118,3.043,3.043,0,0,1,1.591-.387,2.624,2.624,0,0,1,1.634.559q.731.559,1.7,1.226a12.086,12.086,0,0,0,2.365,1.225,9.78,9.78,0,0,0,3.59.559,9.439,9.439,0,0,0,3.118-.473,7.012,7.012,0,0,0,2.3-1.29,5.31,5.31,0,0,0,1.419-1.892,5.6,5.6,0,0,0,.473-2.279,3.916,3.916,0,0,0-.731-2.43,6.468,6.468,0,0,0-1.957-1.677A16.007,16.007,0,0,0-99.416-18q-1.548-.537-3.16-1.139a30.6,30.6,0,0,1-3.139-1.376,11.3,11.3,0,0,1-2.752-1.957,8.759,8.759,0,0,1-1.957-2.881,10.489,10.489,0,0,1-.731-4.15,15.109,15.109,0,0,1,1.118-5.7,14.419,14.419,0,0,1,3.268-4.9,16.071,16.071,0,0,1,5.311-3.418,19.049,19.049,0,0,1,7.245-1.29,18.384,18.384,0,0,1,7.482,1.44,17.333,17.333,0,0,1,5.461,3.677Zm28.466-1.5a9.173,9.173,0,0,0-4,.882,11.027,11.027,0,0,0-3.333,2.472,15.838,15.838,0,0,0-2.58,3.805,23.527,23.527,0,0,0-1.742,4.838,70.56,70.56,0,0,0,8.579-1.612,21.968,21.968,0,0,0,5.009-1.892,5.562,5.562,0,0,0,2.344-2.193,5.543,5.543,0,0,0,.58-2.472,3.532,3.532,0,0,0-.279-1.333,3.408,3.408,0,0,0-.86-1.225,4.771,4.771,0,0,0-1.505-.9A6.021,6.021,0,0,0-55.513-37.324Zm-12.556,19.35q0,10.406,8.815,10.406A13.89,13.89,0,0,0-55.9-7.934a14,14,0,0,0,2.558-.882,11.97,11.97,0,0,0,1.978-1.161q.881-.645,1.634-1.161a12.581,12.581,0,0,1,1.484-.882,3.507,3.507,0,0,1,1.591-.366,2.161,2.161,0,0,1,1.011.258,3.124,3.124,0,0,1,.882.688l2.709,3.268a45.23,45.23,0,0,1-4.472,3.956A24.773,24.773,0,0,1-51-1.462,21.1,21.1,0,0,1-55.814.129a27.624,27.624,0,0,1-5.5.516A18.017,18.017,0,0,1-68.327-.667a15.4,15.4,0,0,1-5.375-3.7,16.586,16.586,0,0,1-3.462-5.762,21.992,21.992,0,0,1-1.226-7.547,31.135,31.135,0,0,1,.753-6.837,30.564,30.564,0,0,1,2.172-6.364,26.987,26.987,0,0,1,3.483-5.547,23.689,23.689,0,0,1,4.666-4.386A21.437,21.437,0,0,1-61.6-43.688a21.147,21.147,0,0,1,6.687-1.032,16.949,16.949,0,0,1,6.041.989,13.654,13.654,0,0,1,4.343,2.559,10.4,10.4,0,0,1,2.6,3.5,9.278,9.278,0,0,1,.86,3.784,12.3,12.3,0,0,1-1.183,5.418,11.093,11.093,0,0,1-4.214,4.386,29.877,29.877,0,0,1-8.278,3.332,87.226,87.226,0,0,1-13.33,2.215ZM-22.661-35a24.046,24.046,0,0,1,7.439-7.375,16.28,16.28,0,0,1,8.428-2.43,10.731,10.731,0,0,1,4.945,1.118,9.451,9.451,0,0,1,3.612,3.246,13.975,13.975,0,0,1,2,5.246,22.983,22.983,0,0,1,.064,7.117L.516,0H-10.105l3.311-28.079q.559-4.3-.43-6.17a3.716,3.716,0,0,0-3.612-1.871,7.507,7.507,0,0,0-3.612,1.01,14.083,14.083,0,0,0-3.569,2.881,23.107,23.107,0,0,0-3.16,4.472,27.031,27.031,0,0,0-2.344,5.826L-25.972,0H-36.593L-31.3-44.161h5.375a3.8,3.8,0,0,1,2.6.817,3.334,3.334,0,0,1,.924,2.623ZM13.029-8.987V-9.7q0-.408.064-1.2t.215-2.107q.15-1.312.408-3.376l2.451-19.78H12a1.617,1.617,0,0,1-1.269-.559,1.987,1.987,0,0,1-.322-1.677l.473-4.214,6.708-1.161,3.526-12.04a2.832,2.832,0,0,1,.9-1.333,2.361,2.361,0,0,1,1.5-.473H29.2l-1.72,13.889H38.141l-.9,7.568H26.531L24.166-16.942q-.215,1.763-.344,2.8t-.194,1.613q-.065.58-.065.817v.323a3.884,3.884,0,0,0,.8,2.58,2.786,2.786,0,0,0,2.258.946,4.508,4.508,0,0,0,1.548-.236A8.354,8.354,0,0,0,29.283-8.6q.473-.258.86-.495a1.413,1.413,0,0,1,.731-.236,1.043,1.043,0,0,1,.731.236,2.176,2.176,0,0,1,.473.71l2.279,5.16A16.93,16.93,0,0,1,29.132-.3a17.709,17.709,0,0,1-5.826.989,10.468,10.468,0,0,1-7.418-2.537A9.655,9.655,0,0,1,13.029-8.987ZM62.866-37.324a9.173,9.173,0,0,0-4,.882,11.027,11.027,0,0,0-3.333,2.472,15.837,15.837,0,0,0-2.58,3.805,23.528,23.528,0,0,0-1.742,4.838,70.56,70.56,0,0,0,8.579-1.612,21.968,21.968,0,0,0,5.01-1.892,5.563,5.563,0,0,0,2.343-2.193,5.543,5.543,0,0,0,.58-2.472,3.532,3.532,0,0,0-.279-1.333,3.408,3.408,0,0,0-.86-1.225,4.771,4.771,0,0,0-1.505-.9A6.021,6.021,0,0,0,62.866-37.324ZM50.31-17.974q0,10.406,8.815,10.406a13.89,13.89,0,0,0,3.354-.365,14,14,0,0,0,2.558-.882,11.97,11.97,0,0,0,1.978-1.161q.882-.645,1.634-1.161a12.581,12.581,0,0,1,1.484-.882,3.507,3.507,0,0,1,1.591-.366,2.161,2.161,0,0,1,1.011.258,3.124,3.124,0,0,1,.882.688L76.325-8.17a45.232,45.232,0,0,1-4.472,3.956,24.773,24.773,0,0,1-4.472,2.752A21.1,21.1,0,0,1,62.565.129a27.624,27.624,0,0,1-5.5.516A18.017,18.017,0,0,1,50.052-.667a15.4,15.4,0,0,1-5.375-3.7,16.586,16.586,0,0,1-3.461-5.762,21.992,21.992,0,0,1-1.226-7.547,31.135,31.135,0,0,1,.753-6.837,30.565,30.565,0,0,1,2.171-6.364A26.987,26.987,0,0,1,46.4-36.421a23.689,23.689,0,0,1,4.666-4.386,21.437,21.437,0,0,1,5.719-2.881,21.147,21.147,0,0,1,6.687-1.032,16.949,16.949,0,0,1,6.041.989,13.654,13.654,0,0,1,4.343,2.559,10.4,10.4,0,0,1,2.6,3.5,9.278,9.278,0,0,1,.86,3.784,12.3,12.3,0,0,1-1.183,5.418,11.093,11.093,0,0,1-4.214,4.386,29.877,29.877,0,0,1-8.278,3.332,87.226,87.226,0,0,1-13.33,2.215Zm61.7-15.867a8.046,8.046,0,0,0-3.354-2.236,11.542,11.542,0,0,0-3.741-.645,8.33,8.33,0,0,0-5.16,1.763,15.456,15.456,0,0,0-3.978,4.6,24.687,24.687,0,0,0-2.558,6.386,28.746,28.746,0,0,0-.9,7.116q0,4.644,1.526,6.9A4.838,4.838,0,0,0,98.083-7.7a6.436,6.436,0,0,0,3.526-1.183,15.321,15.321,0,0,0,3.483-3.268,28.21,28.21,0,0,0,3.118-4.924,40.234,40.234,0,0,0,2.473-6.106ZM126.162-63.9,118.25,0h-5.633a3.135,3.135,0,0,1-2.73-1.011,4.271,4.271,0,0,1-.71-2.515l.387-6.149a33.268,33.268,0,0,1-3.4,4.278,22.549,22.549,0,0,1-3.784,3.247A17.516,17.516,0,0,1,98.276-.086a13.347,13.347,0,0,1-4.365.731A11.977,11.977,0,0,1,88.924-.366,10.141,10.141,0,0,1,85.1-3.4a14.418,14.418,0,0,1-2.451-5.117,27.5,27.5,0,0,1-.86-7.31,34.692,34.692,0,0,1,.774-7.331,35.392,35.392,0,0,1,2.193-6.816,32.346,32.346,0,0,1,3.375-5.934,24.847,24.847,0,0,1,4.365-4.687,20.035,20.035,0,0,1,5.139-3.1,14.787,14.787,0,0,1,5.654-1.118,13.043,13.043,0,0,1,5.375,1.075,13.216,13.216,0,0,1,4.214,2.967L115.756-63.9ZM158.541-10.32A8.046,8.046,0,0,0,161.9-8.084a11.542,11.542,0,0,0,3.741.645A8.33,8.33,0,0,0,170.8-9.2a15.456,15.456,0,0,0,3.977-4.6,24.687,24.687,0,0,0,2.559-6.386,28.747,28.747,0,0,0,.9-7.117q0-4.644-1.505-6.9a4.786,4.786,0,0,0-4.214-2.257,6.494,6.494,0,0,0-3.569,1.182,15.321,15.321,0,0,0-3.483,3.268,28.211,28.211,0,0,0-3.118,4.923,40.233,40.233,0,0,0-2.473,6.106Zm3.1-25.069a26.858,26.858,0,0,1,6.9-6.88,14.358,14.358,0,0,1,8.105-2.537,11.977,11.977,0,0,1,4.988,1.01,10.141,10.141,0,0,1,3.827,3.032,14.418,14.418,0,0,1,2.451,5.117,27.315,27.315,0,0,1,.86,7.267A34.994,34.994,0,0,1,188-21.027a36.252,36.252,0,0,1-2.172,6.837,30.764,30.764,0,0,1-3.375,5.934,25.819,25.819,0,0,1-4.365,4.687,19.681,19.681,0,0,1-5.117,3.1A14.787,14.787,0,0,1,167.313.645a13.1,13.1,0,0,1-6.02-1.355,13.117,13.117,0,0,1-4.472-3.677l-.344,1.462A4.975,4.975,0,0,1,155.23-.71a3.626,3.626,0,0,1-2.494.71h-5.762l7.74-63.9H165.12Zm73.186-8.729-29.154,56.33a4.441,4.441,0,0,1-1.419,1.656,3.6,3.6,0,0,1-2.021.537H194.36l9.8-17.8L193.027-44.118h8.9a2.365,2.365,0,0,1,1.742.58,3.029,3.029,0,0,1,.8,1.4l5.418,22.876q.43,2.193.645,4.386Q211-16,211.5-17.093t1.011-2.215l10.879-22.876a3.547,3.547,0,0,1,1.247-1.4,3.016,3.016,0,0,1,1.677-.537ZM-48.789,51.322V130h-9.5a8.265,8.265,0,0,1-3.537-.675,8.657,8.657,0,0,1-2.835-2.349l-37.1-46.926q.216,2.106.3,4.077t.081,3.7V130h-16.092V51.322h9.612a15.491,15.491,0,0,1,2,.108,5.1,5.1,0,0,1,1.458.4,4.866,4.866,0,0,1,1.242.837,14.193,14.193,0,0,1,1.35,1.458L-64.4,101.38q-.27-2.268-.378-4.4t-.108-4.023V51.322ZM-15.2,130h-18.36V51.322H-15.2Zm68.256-20.358a3.669,3.669,0,0,1,1.3.243,3.523,3.523,0,0,1,1.242.837l7.236,7.614a30.039,30.039,0,0,1-11.907,9.369,41.666,41.666,0,0,1-16.929,3.159,40.329,40.329,0,0,1-16.065-3.051,34.767,34.767,0,0,1-12.042-8.424A37.1,37.1,0,0,1-1.7,106.645,47.058,47.058,0,0,1-4.347,90.634,44.319,44.319,0,0,1-1.485,74.461,37.558,37.558,0,0,1,6.561,61.744a36.233,36.233,0,0,1,12.42-8.316,41.566,41.566,0,0,1,15.93-2.97,42.5,42.5,0,0,1,8.343.783,40.778,40.778,0,0,1,7.317,2.16,33.426,33.426,0,0,1,6.264,3.321,32.871,32.871,0,0,1,5.076,4.212L55.755,69.2a7.839,7.839,0,0,1-1.4,1.377,3.654,3.654,0,0,1-2.268.621,4.05,4.05,0,0,1-1.836-.432,20.3,20.3,0,0,1-1.836-1.053q-.972-.621-2.133-1.35a16.366,16.366,0,0,0-2.754-1.35A22.762,22.762,0,0,0,39.8,65.956a25.426,25.426,0,0,0-4.995-.432A20.121,20.121,0,0,0,26.514,67.2a18.067,18.067,0,0,0-6.48,4.887,22.6,22.6,0,0,0-4.212,7.884,35.182,35.182,0,0,0-1.485,10.665,32.4,32.4,0,0,0,1.647,10.746,23.6,23.6,0,0,0,4.482,7.911,19.019,19.019,0,0,0,6.615,4.887,19.778,19.778,0,0,0,8.1,1.674,38.773,38.773,0,0,0,4.536-.243,20.628,20.628,0,0,0,3.834-.81,15.623,15.623,0,0,0,3.348-1.512,21.124,21.124,0,0,0,3.186-2.4,6.385,6.385,0,0,1,1.4-.891A3.679,3.679,0,0,1,53.055,109.642Zm36.126-44.28v18.36h24.732v13.5H89.181V115.96h32.292V130H70.821V51.322h50.652v14.04Z" transform="translate(1259.6 2265)" fill="#0e0e0e"/>
  </g>
</svg>
